:SAMPLES-PER-SECOND 30
:FULLY-SPECIFIED
:DEGREES
82
root  65.0179 40.3506 -0.706514 -53.8511 -74.9963 52.771
RightUpLeg  -5.69808 -9.51997 -15.4413
RightLeg  -1.48649 9.72219 -0.106422
RightFoot  12.4769 -0.316781 1.9035
RightToes  -8.3237e-009 0 -3.6325e-017
Spine  5.87725 0.887178 -15.3883
Spine1  4.64492 0.89302 -9.63442
HEad  -14.956 -8.64797 -3.76235
LeftShoulder1  -0.143157 3.86672 -33.3261
LeftArm  13.3549 7.18672 -40.9043
LeftForeArm  20.5831 -22.617 -4.03645
LeftHand  -0.0228067 6.28406 1.16021
RightShoulder  -0.616901 -5.18269 29.9781
RightArm  21.4141 -0.984893 44.4567
RightForeArm  6.1365 11.0059 8.55196
RightHand  -0.33406 4.20831 -4.38702
LeftUpLeg  -23.831 -2.87721 -6.23501
LeftLeg  96.2297 -28.5782 -107.269
LeftFoot  -99.7151 21.1658 21.7883
LeftToes  -1.18267e-011 3.61711e-011 9.57411e-011
83
root  65.4357 39.9643 -0.425948 -51.2288 -76.5032 49.5984
RightUpLeg  -8.61992 -9.1751 -14.0571
RightLeg  4.03059 9.56295 0.822422
RightFoot  10.0068 -0.240936 1.65386
RightToes  -8.3237e-009 0 -3.6325e-017
Spine  4.98894 1.57423 -13.819
Spine1  3.89198 0.729268 -9.39705
HEad  -14.9918 -8.27487 -3.74024
LeftShoulder1  -0.122768 3.81374 -33.4519
LeftArm  13.6503 6.53011 -40.6484
LeftForeArm  20 -23.653 -4.01576
LeftHand  -0.00931744 6.78301 2.12216
RightShoulder  -0.642388 -5.24641 30.111
RightArm  23.016 -2.23611 44.1495
RightForeArm  5.78163 11.6291 8.5903
RightHand  -0.308157 5.33176 -3.63674
LeftUpLeg  -16.3706 -1.64993 0.915204
LeftLeg  69.8782 -30.2699 -55.5559
LeftFoot  -115.522 8.78603 5.70866
LeftToes  -1.18267e-011 3.61711e-011 9.57411e-011
84
root  66.2386 39.8936 -0.0495488 -50.5509 -75.7808 48.858
RightUpLeg  -8.58926 -9.86996 -15.2152
RightLeg  1.89337 9.85448 0.491013
RightFoot  12.0498 -0.390416 2.25114
RightToes  -8.3237e-009 0 -3.6325e-017
Spine  5.49467 1.20469 -15.041
Spine1  3.7501 0.665114 -9.88943
HEad  -14.6072 -7.34891 -3.5394
LeftShoulder1  -0.0829461 3.71546 -33.0925
LeftArm  13.1332 5.96698 -40.8938
LeftForeArm  21.0734 -24.3493 -4.09733
LeftHand  -0.0116255 6.25178 2.5739
RightShoulder  -0.685854 -5.34453 30.5411
RightArm  24.4592 -3.11701 43.8269
RightForeArm  5.0944 11.8439 8.77378
RightHand  -0.352566 5.04231 -4.22431
LeftUpLeg  -19.5338 -3.46225 -1.11672
LeftLeg  76.8355 -29.1067 -69.0912
LeftFoot  -111.754 12.0809 9.77391
LeftToes  -1.18267e-011 3.61711e-011 9.57411e-011
85
root  67.3404 39.9902 0.36388 -50.9483 -73.074 49.6443
RightUpLeg  -7.66719 -10.842 -18.4997
RightLeg  -3.15686 9.41419 -0.395881
RightFoot  15.9182 -0.751158 3.57109
RightToes  -8.3237e-009 0 -3.6325e-017
Spine  8.19163 0.0951361 -19.5521
Spine1  2.74214 0.45524 -10.3739
HEad  -13.637 -5.96518 -3.74287
LeftShoulder1  -0.116809 3.80152 -33.1182
LeftArm  13.5779 5.41238 -40.998
LeftForeArm  20.0558 -24.6321 -4.21414
LeftHand  -0.00657476 6.28917 3.10231
RightShoulder  -0.704395 -5.38439 30.7388
RightArm  25.6298 -4.68974 43.1799
RightForeArm  5.3183 12.3826 8.66548
RightHand  -0.319518 4.89622 -3.88513
LeftUpLeg  -30.4962 -5.73563 -8.26166
LeftLeg  97.3906 -26.1215 -110.261
LeftFoot  -101.421 23.2132 22.2243
LeftToes  -1.18267e-011 3.61711e-011 9.57411e-011
86
root  68.2571 39.7783 0.820943 -52.1443 -72.6336 50.6879
RightUpLeg  -9.14049 -11.2369 -19.7919
RightLeg  -2.61979 10.025 -0.419653
RightFoot  16.6642 -0.941668 4.23764
RightToes  -8.3237e-009 0 -3.6325e-017
Spine  8.68386 0.278289 -21.4673
Spine1  2.30303 0.429767 -10.4287
HEad  -13.5204 -5.98173 -3.84774
LeftShoulder1  -0.0963923 3.74833 -33.2954
LeftArm  14.6494 3.85364 -41.341
LeftForeArm  19.4586 -24.5558 -4.22948
LeftHand  -0.00640071 6.08241 3.64217
RightShoulder  -0.810897 -5.65427 31.0523
RightArm  25.487 -5.43393 42.6781
RightForeArm  5.82907 12.6032 8.46925
RightHand  -0.219048 4.47101 -2.86503
LeftUpLeg  -29.9979 -5.05756 -8.81532
LeftLeg  94.7736 -26.3941 -104.904
LeftFoot  -102.923 21.0387 19.7304
LeftToes  -1.18267e-011 3.61711e-011 9.57411e-011
87
root  69.267 39.5779 1.32299 -54.5884 -71.8174 52.828
RightUpLeg  -10.4377 -12.0711 -21.4978
RightLeg  -2.48702 11.3064 -0.827508
RightFoot  17.7513 -1.25992 5.322
RightToes  -8.3237e-009 0 -3.6325e-017
Spine  8.96509 0.181818 -24.0062
Spine1  2.38044 0.146654 -10.155
HEad  -13.3841 -5.12937 -3.22327
LeftShoulder1  -0.0908325 3.73431 -33.2599
LeftArm  15.2882 2.47107 -41.7842
LeftForeArm  18.8698 -24.4855 -4.22795
LeftHand  0.0253404 6.80998 4.73281
RightShoulder  -0.857628 -5.75065 31.53
RightArm  23.7746 -5.45663 42.6896
RightForeArm  6.612 11.9449 8.48058
RightHand  -0.288743 4.475 -3.68378
LeftUpLeg  -29.9411 -4.22546 -10.5202
LeftLeg  94.0568 -26.2622 -103.403
LeftFoot  -103.342 19.9722 18.5484
LeftToes  -1.18267e-011 3.61711e-011 9.57411e-011
88
root  70.2371 39.3604 1.7914 -55.0721 -71.3456 53.3216
RightUpLeg  -11.7619 -13.4567 -22.3412
RightLeg  -2.60443 12.3499 -1.51341
RightFoot  17.3139 -1.72309 7.24795
RightToes  -8.3237e-009 0 -3.6325e-017
Spine  9.00275 0.0219501 -25.9123
Spine1  2.22331 -0.105412 -9.46146
HEad  -13.4218 -5.09311 -3.54588
LeftShoulder1  -0.104274 3.77097 -32.9779
LeftArm  16.249 0.770776 -42.4639
LeftForeArm  17.9834 -23.3448 -4.19095
LeftHand  0.0366498 7.50629 3.92345
RightShoulder  -0.882698 -5.81395 31.5783
RightArm  21.782 -6.51584 43.0652
RightForeArm  7.66572 12.0188 8.01071
RightHand  -0.282572 4.04326 -3.74764
LeftUpLeg  -29.8858 -3.65175 -11.3784
LeftLeg  94.0833 -26.5857 -103.315
LeftFoot  -103.167 19.1018 17.7682
LeftToes  -1.18267e-011 3.61711e-011 9.57411e-011
89
root  71.159 39.2073 2.21797 -52.3461 -70.9122 50.9277
RightUpLeg  -12.3493 -14.6324 -22.9948
RightLeg  -3.33771 10.5371 -1.71185
RightFoot  13.6165 -1.91749 9.02562
RightToes  -8.3237e-009 0 -3.6325e-017
Spine  8.34249 -0.740007 -26.7387
Spine1  2.94008 -0.517313 -8.87975
HEad  -13.475 -3.683 -4.47839
LeftShoulder1  -0.229676 4.09548 -32.6696
LeftArm  17.6012 -1.22847 -42.9916
LeftForeArm  17.494 -21.4131 -4.61776
LeftHand  0.0368725 7.49223 3.99547
RightShoulder  -0.908931 -5.8794 31.6399
RightArm  19.3664 -8.14631 43.5656
RightForeArm  9.20153 12.6591 7.16404
RightHand  -0.234843 4.10166 -3.12365
LeftUpLeg  -31.0789 -4.29508 -11.3034
LeftLeg  93.536 -27.2991 -101.792
LeftFoot  -104.054 18.3361 16.75
LeftToes  -1.18267e-011 3.61711e-011 9.57411e-011
90
root  72.0913 39.2274 2.69504 -52.5063 -71.3225 51.5321
RightUpLeg  -12.8082 -15.0783 -23.3779
RightLeg  -3.92834 7.02 -1.40003
RightFoot  9.25155 -1.56581 8.99705
RightToes  -8.3237e-009 0 -3.6325e-017
Spine  8.07511 -0.852126 -25.1805
Spine1  3.10326 0.121585 -8.96267
HEad  -13.1614 -3.12927 -5.29678
LeftShoulder1  -0.2428 4.12749 -32.8379
LeftArm  17.0803 -2.03798 -42.3388
LeftForeArm  18.3549 -20.5396 -5.07753
LeftHand  0.0297529 8.29621 2.86813
RightShoulder  -0.9265 -5.90894 31.9006
RightArm  17.2698 -10.3785 43.6604
RightForeArm  9.9314 12.8089 6.59656
RightHand  -0.104915 4.38866 -1.5249
LeftUpLeg  -32.1288 -4.1535 -12.7078
LeftLeg  96.2557 -28.6959 -106.813
LeftFoot  -102.692 18.55 17.3815
LeftToes  -1.18267e-011 3.61711e-011 9.57411e-011
91
root  72.9008 39.4554 3.02717 -54.1463 -71.507 53.4491
RightUpLeg  -12.116 -15.6986 -24.0633
RightLeg  -3.26312 2.10708 -0.3066
RightFoot  7.46234 -1.61053 10.0163
RightToes  -8.3237e-009 0 -3.6325e-017
Spine  7.78206 -0.722865 -24.2723
Spine1  3.46478 0.839391 -10.4608
HEad  -13.1654 -2.94729 -6.13016
LeftShoulder1  -0.178332 3.95481 -33.3834
LeftArm  15.1301 -2.12153 -40.9952
LeftForeArm  19.5257 -19.7731 -5.43251
LeftHand  0.0043808 8.40804 1.9248
RightShoulder  -0.931006 -5.90791 32.1005
RightArm  15.9066 -11.239 44.319
RightForeArm  10.7716 11.5389 6.77564
RightHand  -0.137084 4.78571 -1.80347
LeftUpLeg  -33.0979 -4.15888 -13.926
LeftLeg  98.4031 -28.0715 -111.221
LeftFoot  -102.047 20.2008 19.1247
LeftToes  -1.18267e-011 3.61711e-011 9.57411e-011
92
root  73.6651 39.8213 3.26189 -57.9616 -73.3472 57.2339
RightUpLeg  -10.6652 -15.7845 -22.8587
RightLeg  -2.50315 0.317846 0.391762
RightFoot  8.44124 -1.26953 7.59476
RightToes  -8.3237e-009 0 -3.6325e-017
Spine  7.58664 -0.0772319 -21.9379
Spine1  3.90011 1.79345 -12.3287
HEad  -13.3586 -2.28279 -7.23303
LeftShoulder1  -0.225171 4.07252 -33.4614
LeftArm  11.6067 -1.07114 -40.2202
LeftForeArm  22.1095 -19.048 -5.60845
LeftHand  0.0200966 7.3063 3.26234
RightShoulder  -0.883135 -5.78928 31.9985
RightArm  15.8366 -10.7777 45.3979
RightForeArm  14.8689 9.96545 7.23001
RightHand  -0.0303363 1.70814 -0.686815
LeftUpLeg  -31.7759 -2.204 -11.6157
LeftLeg  89.5797 -29.9379 -94.0329
LeftFoot  -106.861 16.4077 14.6109
LeftToes  -1.18267e-011 3.61711e-011 9.57411e-011
93
root  74.1675 40.1735 3.48184 -63.6121 -76.556 62.2655
RightUpLeg  -7.39404 -15.3284 -20.0483
RightLeg  -2.76916 1.86922 0.072833
RightFoot  9.12279 -1.13681 6.66174
RightToes  -8.3237e-009 0 -3.6325e-017
Spine  6.62469 1.60376 -18.987
Spine1  3.46486 1.96573 -12.2879
HEad  -13.1659 -1.03516 -7.35192
LeftShoulder1  -0.195111 3.99747 -33.389
LeftArm  8.84081 1.09424 -39.1234
LeftForeArm  21.5681 -18.8146 -5.56909
LeftHand  0.043695 8.67614 3.04789
RightShoulder  -0.890775 -5.80582 32.0544
RightArm  16.5578 -10.0132 45.5698
RightForeArm  17.1365 9.75087 7.45109
RightHand  -0.0657255 1.4118 -1.24505
LeftUpLeg  -21.9125 1.65192 -5.65433
LeftLeg  64.2968 -30.2342 -46.8362
LeftFoot  -115.822 2.33935 0.873255
LeftToes  -1.18267e-011 3.61711e-011 9.57411e-011
94
root  74.8446 40.55 3.61401 -69.5435 -77.8319 67.9793
RightUpLeg  -4.96708 -12.3511 -19.2659
RightLeg  -0.748705 0.206759 -0.243501
RightFoot  9.1146 -0.897031 5.27122
RightToes  -8.3237e-009 0 -3.6325e-017
Spine  6.71653 2.19941 -18.773
Spine1  3.73931 2.42191 -12.4079
HEad  -13.1484 0.016128 -6.87073
LeftShoulder1  -0.163463 3.9203 -33.1259
LeftArm  7.99217 3.63724 -38.1383
LeftForeArm  19.9174 -18.8118 -5.54118
LeftHand  0.0338395 8.38357 2.91467
RightShoulder  -0.896268 -5.82108 32.0401
RightArm  17.1897 -9.94394 45.2518
RightForeArm  17.6156 11.0571 7.11617
RightHand  -0.0105742 1.01776 -0.303147
LeftUpLeg  -21.6516 4.95285 -5.35825
LeftLeg  64.9652 -31.5733 -48.9317
LeftFoot  -115.449 2.92622 1.52308
LeftToes  -1.18267e-011 3.61711e-011 9.57411e-011
